<?xml version="1.0" encoding="UTF-8"?>
<!DOCTYPE svg PUBLIC "-//W3C//DTD SVG 1.1//EN" "http://www.w3.org/Graphics/SVG/1.1/DTD/svg11.dtd">
<!-- Creator: CorelDRAW -->
<svg xmlns="http://www.w3.org/2000/svg" xml:space="preserve" width="66.7882mm" height="6.8834mm" version="1.1" style="shape-rendering:geometricPrecision; text-rendering:geometricPrecision; image-rendering:optimizeQuality; fill-rule:evenodd; clip-rule:evenodd"
viewBox="0 0 5979.81 616.3"
 xmlns:xlink="http://www.w3.org/1999/xlink"
 xmlns:xodm="http://www.corel.com/coreldraw/odm/2003">
 <defs>
  <style type="text/css">
   <![CDATA[
    .fil2 {fill:#782D2E}
    .fil1 {fill:#782D2E;fill-rule:nonzero}
    .fil0 {fill:#AC3336;fill-rule:nonzero}
   ]]>
  </style>
 </defs>
 <g id="Camada_x0020_1">
  <metadata id="CorelCorpID_0Corel-Layer"/>
  <g id="_2423019801120">
   <g>
    <path class="fil0" d="M236.64 614.78l-172.96 -455.59 -63.68 0 0 -64.44 203.15 0 0 64.44 -59.5 0 131.14 345.67 127.49 -345.67 -59.64 0 0 -64.44 197.1 0 0 64.44 -62.41 0 -169.3 455.59 -71.39 0zm372.08 -486.17c0,-11.37 4.05,-21.23 12.01,-29.56 7.96,-8.47 18.19,-12.63 30.44,-12.63 11.63,0 21.48,4.04 29.95,12.26 8.34,8.08 12.51,18.19 12.51,29.94 0,11.87 -4.17,21.98 -12.51,30.33 -8.47,8.21 -18.32,12.37 -29.95,12.37 -11.75,0 -21.86,-4.16 -30.07,-12.63 -8.21,-8.34 -12.38,-18.44 -12.38,-30.07zm9.86 417.94l0 -232.73 -55.34 0 0 -62.92 125.84 0 0 295.64 55.33 0 0 62.92 -181.17 0 0 -62.92 55.34 0zm613.27 0l0 62.92 -134.94 0 0 -52.43c-35,39.04 -77.71,58.49 -128.11,58.49 -46.62,0 -87.68,-15.92 -122.93,-47.76 -35.25,-31.84 -52.94,-77.2 -52.94,-135.94 0,-59 18.19,-105.62 54.45,-139.61 36.26,-34.11 77.2,-51.17 122.93,-51.17 48.39,0 90.59,19.21 126.6,57.74l0 -141.13 -68.99 0 0 -62.92 139.48 0 0 451.81 64.44 0zm-363.87 -116.74c0,39.42 11.12,69.74 33.49,90.97 22.37,21.23 49.15,31.84 80.22,31.84 30.2,0 56.85,-11.12 80.23,-33.48 23.38,-22.37 35,-53.19 35,-92.61 0,-39.8 -11.88,-69.74 -35.76,-89.95 -23.88,-20.22 -50.53,-30.33 -80.22,-30.33 -31.84,0 -58.63,11.88 -80.36,35.76 -21.73,23.75 -32.6,53.06 -32.6,87.81zm758.82 116.74l0 62.92 -123.57 0 0 -43.71c-33.98,33.23 -72.01,49.77 -113.96,49.77 -32.6,0 -60.89,-10.61 -84.91,-31.84 -24.13,-21.22 -36.13,-48.26 -36.13,-81.36 0,-33.23 12.76,-60.9 38.28,-82.76 25.65,-21.98 56.48,-32.98 92.49,-32.98 33.6,0 66.08,10.11 97.4,30.33l0 -35.63c0,-18.44 -1.76,-32.47 -5.18,-42.45 -3.54,-9.86 -11.62,-18.83 -24.39,-26.79 -12.63,-7.96 -29.3,-11.87 -49.9,-11.87 -35.38,0 -60.9,14.15 -76.82,42.45l-67.34 -17.81c29.94,-55.85 81.61,-83.77 155.02,-83.77 26.91,0 50.28,3.66 69.87,10.86 19.71,7.33 34.36,16.68 43.96,28.18 9.73,11.5 16.17,23.88 19.46,37.15 3.41,13.27 5.06,34.49 5.06,63.68l0 165.64 60.64 0zm-130.39 -69.87c-30.32,-23.63 -61.14,-35.5 -92.23,-35.5 -19.46,0 -35.75,5.69 -48.89,16.93 -13.01,11.37 -19.58,25.9 -19.58,43.84 0,16.81 5.69,30.7 17.18,42.07 11.5,11.25 27.16,16.93 46.87,16.93 34.11,0 66.34,-14.27 96.65,-42.7l0 -41.57z"/>
    <path class="fil1" d="M1689.58 609.48l-0.75 -530.64 414.66 0 1.51 115.98 -266.84 -0.76 0.76 415.42 -149.34 0zm137.97 -182.69l0.75 -115.22 244.1 0.76 0.76 115.22 -245.61 -0.76zm582.94 182.69l0 -76.56 -9.85 -18.95 0 -141c0,-22.74 -6.95,-40.31 -20.85,-52.68 -13.9,-12.38 -36,-18.58 -66.33,-18.58 -19.71,0 -39.67,3.16 -59.89,9.48 -20.21,6.31 -37.4,15.03 -51.54,26.15l-48.52 -97.79c23.25,-15.17 51.17,-26.91 83.77,-35.26 32.6,-8.34 65.06,-12.51 97.41,-12.51 66.7,0 118.38,15.29 155.02,45.87 36.64,30.58 54.96,78.46 54.96,143.65l0 228.18 -134.18 0zm-121.28 6.82c-32.85,0 -60.65,-5.56 -83.39,-16.68 -22.74,-11.11 -40.05,-26.28 -51.92,-45.48 -11.88,-19.21 -17.82,-40.68 -17.82,-64.43 0,-25.28 6.45,-47.13 19.33,-65.57 12.88,-18.44 32.72,-32.6 59.5,-42.45 26.79,-9.86 61.4,-14.78 103.86,-14.78l97.03 0 0 75.05 -77.32 0c-23.24,0 -39.55,3.79 -48.89,11.37 -9.35,7.57 -14.02,17.68 -14.02,30.32 0,12.63 4.8,22.74 14.4,30.33 9.61,7.58 22.74,11.37 39.42,11.37 15.67,0 29.94,-3.91 42.83,-11.75 12.88,-7.83 22.36,-19.84 28.43,-36.01l19.71 53.07c-7.58,28.3 -22.37,49.65 -44.35,64.05 -21.98,14.41 -50.92,21.6 -86.79,21.6zm347.19 -6.82l-0.75 -562.48 144.02 0 0 562.48 -143.27 0z"/>
   </g>
   <path class="fil1" d="M3384.22 609.48l-1.51 -410.87 144.02 0.76 0 410.11 -142.51 0zm70.5 -456.35c-26.28,0 -47.51,-7.32 -63.68,-21.98 -16.17,-14.66 -24.25,-32.85 -24.25,-54.58 0,-21.73 8.08,-39.92 24.25,-54.58 16.17,-14.66 37.4,-21.98 63.68,-21.98 26.28,0 47.51,6.95 63.68,20.84 16.17,13.9 24.25,31.71 24.25,53.44 0,22.74 -7.96,41.57 -23.88,56.48 -15.92,14.91 -37.26,22.36 -64.05,22.36zm181.93 456.35l0 -406.32c0,-49.52 14.78,-89.07 44.35,-118.63 29.56,-29.56 71.9,-44.35 126.98,-44.35 17.69,0 35.12,1.77 52.31,5.31 17.18,3.54 31.59,8.85 43.21,15.92l-35.63 101.58c-6.07,-3.54 -12.89,-6.45 -20.47,-8.72 -7.58,-2.27 -15.17,-3.41 -22.74,-3.41 -15.17,0 -26.91,4.42 -35.25,13.27 -8.34,8.85 -12.51,22.37 -12.51,40.56l0 29.56 3.79 59.89 0 315.35 -144.03 0zm-59.88 -288.06l0 -107.65 297.92 0 0 107.65 -297.92 0zm552.62 294.88c-45.48,-0.5 -85.53,-9.73 -120.15,-27.67 -34.61,-17.94 -61.9,-42.96 -81.87,-75.05 -19.96,-32.1 -29.94,-68.61 -29.94,-109.54 0,-41.95 9.98,-78.71 29.94,-110.3 19.97,-31.59 47.38,-56.47 82.25,-74.67 34.86,-18.19 74.54,-27.29 119.01,-27.29 45.48,0 85.79,9.1 120.92,27.29 35.12,18.2 62.54,43.22 82.25,75.06 19.72,31.84 29.56,68.48 29.56,109.91 0,40.93 -9.85,77.45 -29.56,109.54 -19.71,32.09 -47.12,57.1 -82.25,75.05 -35.12,17.93 -75.17,27.16 -120.15,27.67zm0 -114.47c16.68,0 31.46,-3.79 44.35,-11.37 12.88,-7.57 23.12,-18.82 30.7,-33.73 7.58,-14.92 11.62,-32.47 12.13,-52.69 -0.51,-21.22 -4.55,-39.04 -12.13,-53.44 -7.58,-14.4 -17.82,-25.39 -30.7,-32.98 -12.88,-7.57 -27.92,-11.37 -45.11,-11.37 -15.66,0 -29.94,3.8 -42.82,11.37 -12.89,7.58 -23.25,18.58 -31.09,32.98 -7.83,14.41 -12,32.22 -12.51,53.44 0.51,20.22 4.68,37.77 12.51,52.69 7.83,14.91 18.19,26.28 31.09,34.11 12.88,7.83 27.42,11.5 43.59,10.99zm298.68 107.65l0 -410.87 137.2 0 0 119.78 -20.47 -34.11c12.13,-30.83 31.84,-53.95 59.13,-69.36 27.29,-15.42 60.4,-23.13 99.31,-23.13l0 129.64c-6.57,-1.01 -12.26,-1.65 -17.06,-1.9 -4.8,-0.25 -9.98,-0.38 -15.54,-0.38 -29.31,0 -53.07,7.96 -71.26,23.88 -18.19,15.92 -27.29,41.81 -27.29,77.7l0 188.76 -144.02 0zm334.3 0l0 -410.87 137.2 0 0 114.47 -27.29 -32.59c15.17,-29.31 35.89,-51.43 62.16,-66.34 26.28,-14.91 55.59,-22.37 87.93,-22.37 36.9,0 69.36,9.48 97.41,28.43 28.05,18.95 46.87,48.39 56.48,88.32l-47 -9.85c14.65,-33.36 36.76,-59.51 66.33,-78.47 29.56,-18.95 63.55,-28.43 101.96,-28.43 31.84,0 60.27,6.45 85.28,19.33 25.02,12.89 44.72,32.72 59.13,59.51 14.4,26.78 21.6,61.4 21.6,103.85l0 235 -144.03 0 0 -211.5c0,-29.31 -5.56,-50.67 -16.68,-64.05 -11.12,-13.39 -26.28,-20.09 -45.48,-20.09 -13.64,0 -26.03,3.29 -37.14,9.86 -11.12,6.56 -19.72,16.55 -25.78,29.94 -6.06,13.39 -9.1,30.7 -9.1,51.93l0 203.91 -144.03 0 0 -211.5c0,-29.31 -5.43,-50.67 -16.3,-64.05 -10.87,-13.39 -26.15,-20.09 -45.87,-20.09 -14.15,0 -26.65,3.29 -37.52,9.86 -10.86,6.56 -19.46,16.55 -25.77,29.94 -6.32,13.39 -9.48,30.7 -9.48,51.93l0 203.91 -144.02 0zm1012.76 6.82c-48.52,0 -90.84,-9.22 -126.98,-27.67 -36.13,-18.45 -64.18,-43.72 -84.14,-75.81 -19.96,-32.09 -29.94,-68.6 -29.94,-109.54 0,-40.93 9.73,-77.46 29.19,-109.54 19.46,-32.09 46.36,-57.1 80.73,-75.05 34.36,-17.94 73.02,-26.91 115.98,-26.91 40.42,0 77.32,8.22 110.67,24.64 33.36,16.43 59.89,40.56 79.6,72.4 19.72,31.84 29.56,70.5 29.56,115.98 0,5.05 -0.25,10.86 -0.75,17.43 -0.51,6.57 -1.01,12.63 -1.52,18.19l-325.21 0 0 -75.8 248.64 0 -54.58 21.22c0.5,-18.69 -2.91,-34.86 -10.23,-48.51 -7.33,-13.64 -17.44,-24.26 -30.33,-31.84 -12.88,-7.58 -27.92,-11.37 -45.11,-11.37 -17.18,0 -32.21,3.79 -45.1,11.37 -12.89,7.57 -22.87,18.32 -29.95,32.21 -7.07,13.9 -10.61,30.19 -10.61,48.89l0 21.98c0,20.22 4.17,37.65 12.51,52.31 8.34,14.66 20.34,25.9 36.01,33.74 15.67,7.83 34.36,11.75 56.09,11.75 20.22,0 37.52,-2.9 51.93,-8.71 14.4,-5.81 28.68,-14.78 42.82,-26.91l75.81 78.83c-19.71,21.73 -43.96,38.28 -72.77,49.66 -28.8,11.37 -62.92,17.06 -102.34,17.06z"/>
   <path class="fil2" d="M2979.92 55.32c16.62,-10.64 34.65,-19.11 53.74,-24.21 23.82,-6.37 58.51,-11.61 69.51,17.47 7.5,19.81 -1.92,51.4 -7.31,71.17 -8.79,32.21 -17.77,63.52 -22.71,96.68 -5.67,38.08 -5.86,76.31 3.5,113.85 21.03,84.37 99.9,105.4 174.92,117.92 17,2.84 34.15,5.23 51.08,8.46 13.47,2.57 28.77,5.95 40.97,12.33 13.28,6.94 22.8,17.9 23.14,33.41 0.36,16.1 -9.73,31.86 -19.28,44.06 -51.74,66.1 -213.43,75.41 -287.54,49.94 -160.51,-55.15 -245.13,-230.56 -190.61,-390.9 20.44,-60.12 58.49,-112.09 109.74,-149.6l0.41 -0.3 0.43 -0.28z"/>
  </g>
 </g>
</svg>
