<?xml version="1.0" encoding="UTF-8"?>
<!DOCTYPE svg PUBLIC "-//W3C//DTD SVG 1.1//EN" "http://www.w3.org/Graphics/SVG/1.1/DTD/svg11.dtd">
<!-- Creator: CorelDRAW -->
<svg xmlns="http://www.w3.org/2000/svg" xml:space="preserve" width="61.3584mm" height="8.7794mm" version="1.1" style="shape-rendering:geometricPrecision; text-rendering:geometricPrecision; image-rendering:optimizeQuality; fill-rule:evenodd; clip-rule:evenodd"
viewBox="0 0 4972.44 711.48"
 xmlns:xlink="http://www.w3.org/1999/xlink"
 xmlns:xodm="http://www.corel.com/coreldraw/odm/2003">
 <defs>
  <style type="text/css">
   <![CDATA[
    .fil2 {fill:#782D2E}
    .fil0 {fill:#AC3336;fill-rule:nonzero}
    .fil1 {fill:#782D2E;fill-rule:nonzero}
   ]]>
  </style>
 </defs>
 <g id="Camada_x0020_1">
  <metadata id="CorelCorpID_0Corel-Layer"/>
  <g id="_3180130434048">
   <g>
    <path class="fil0" d="M4972.44 555.73l-272.4 0c4,30.07 15.89,54.32 35.45,72.96 19.67,18.64 44.72,27.9 75.24,27.9 44.37,0 79.6,-17.84 105.44,-53.52l56.27 24.81c-18.3,28.25 -42.08,49.29 -71.36,63.01 -29.27,13.73 -59.81,20.58 -91.83,20.58 -49.51,0 -91.95,-15.44 -127.17,-46.43 -35.11,-30.99 -52.72,-72.72 -52.72,-125.34 0,-49.74 17.16,-90.8 51.46,-123.04 34.3,-32.13 73.65,-48.26 118.02,-48.26 43.57,0 83.02,15.66 118.47,47.12 35.45,31.33 53.75,78.11 55.12,140.2zm-65.88 -45.97c-4.46,-22.87 -16.23,-43.57 -35.45,-62.09 -19.1,-18.53 -42.65,-27.79 -70.44,-27.79 -25.39,0 -47.12,8.35 -65.19,25.04 -18.06,16.82 -29.04,38.31 -33.05,64.84l204.12 0z"/>
    <path class="fil0" d="M4087.21 644.93l0 -210.65 -53.52 0 0 -56.95 117.33 0 0 40.82c38.31,-30.41 75.93,-45.63 112.64,-45.63 37.05,0 62.55,16.81 76.61,50.54 42.31,-33.74 81.77,-50.54 118.24,-50.54 21.04,0 38.31,4.57 51.91,13.83 13.5,9.26 22.64,21.05 27.33,35.23 4.69,14.17 7.09,34.99 7.09,62.66l0 160.68 56.95 0 0 56.95 -120.76 0 0 -206.07c0,-18.76 -0.8,-32.02 -2.52,-39.68 -1.71,-7.66 -5.94,-14.07 -12.8,-19.09 -6.86,-5.03 -15.1,-7.55 -24.7,-7.55 -27.33,0 -58.32,13.95 -93.09,41.86l0 173.59 55.58 0 0 56.95 -119.4 0 0 -212.13c0,-21.16 -3.09,-36.6 -9.14,-46.09 -6.18,-9.49 -16.59,-14.18 -31.22,-14.18 -24.01,0 -54.89,13.95 -92.74,41.86l0 173.59 56.95 0 0 56.95 -178.39 0 0 -56.95 57.64 0z"/>
    <path class="fil0" d="M3805.21 644.93l0 -210.65 -65.18 0 0 -56.95 115.95 0 0 73.07c7.2,-18.99 17.16,-34.77 29.85,-47.23 12.81,-12.59 26.31,-20.82 40.49,-24.7 14.3,-4 33.74,-5.95 58.32,-5.95l16.82 0 0 64.5 -12.7 0c-32.47,0 -56.61,3.2 -72.61,9.72 -16.01,6.4 -27.79,18.19 -35.57,35.22 -7.66,17.04 -11.55,47.69 -11.55,91.71l0 71.25 70.67 0 0 56.95 -199.66 0 0 -56.95 65.18 0z"/>
    <path class="fil0" d="M3357.73 539.71c0,-49.97 16.58,-91.14 49.64,-123.16 33.05,-32.14 73.3,-48.15 120.87,-48.15 46.65,0 86.79,15.78 120.3,47.46 33.51,31.68 50.2,72.96 50.2,123.84 0,51.01 -16.69,92.4 -50.09,124.19 -33.39,31.68 -73.53,47.57 -120.42,47.57 -48.26,0 -88.74,-16.12 -121.45,-48.26 -32.71,-32.25 -49.06,-73.41 -49.06,-123.5zm67.25 0.24c0,32.13 9.94,58.43 29.96,79.01 20.01,20.47 44.48,30.76 73.3,30.76 29.28,0 53.86,-10.41 73.65,-31.1 19.78,-20.81 29.61,-47 29.61,-78.67 0,-31.91 -10.06,-58.21 -30.19,-78.79 -20.12,-20.7 -44.48,-30.99 -73.07,-30.99 -29.96,0 -54.66,10.52 -74.1,31.68 -19.44,21.04 -29.16,47.11 -29.16,78.11z"/>
    <path class="fil0" d="M3183.46 644.93l0 -211.33 -47.34 0 0 -56.26 47.34 0 0 -46.78c0,-39.34 8.35,-66.56 25.15,-81.65 16.82,-14.98 36.6,-22.53 59.47,-22.53 49.17,0 77.77,24.81 85.54,74.33l-56.61 8.69c-2.29,-20.58 -10.41,-30.88 -24.58,-30.88 -9.61,0 -16.24,3.32 -19.79,9.84 -3.54,6.63 -5.37,20.7 -5.37,42.2l0 46.78 55.58 0 0 56.26 -55.58 0 0 211.33 61.75 0 0 56.95 -172.91 0 0 -56.95 47.34 0z"/>
    <polygon class="fil0" points="2989.97,644.93 2989.97,434.28 2939.88,434.28 2939.88,377.34 3053.78,377.34 3053.78,644.93 3103.86,644.93 3103.86,701.87 2939.88,701.87 2939.88,644.93 "/>
    <path class="fil0" d="M2981.05 266.64c0,-10.29 3.66,-19.21 10.87,-26.76 7.2,-7.67 16.47,-11.43 27.55,-11.43 10.53,0 19.44,3.65 27.11,11.09 7.54,7.32 11.32,16.47 11.32,27.1 0,10.75 -3.78,19.9 -11.32,27.45 -7.67,7.43 -16.58,11.2 -27.11,11.2 -10.63,0 -19.78,-3.77 -27.21,-11.43 -7.43,-7.54 -11.21,-16.69 -11.21,-27.21z"/>
    <path class="fil0" d="M2891.16 377.34l0 122.82 -56.95 0c-2.86,-23.44 -12.46,-41.39 -28.59,-53.98 -16.13,-12.46 -34.88,-18.75 -56.27,-18.75 -28.58,0 -51.69,10.18 -69.52,30.42 -17.84,20.24 -26.76,46.88 -26.76,79.82 0,30.65 8.46,57.64 25.38,81.08 16.93,23.44 41.4,35.11 73.54,35.11 44.48,0 76.85,-21.26 96.86,-63.81l52.6 24.81c-29.04,64.39 -79.82,96.63 -152.32,96.63 -51.35,0 -91.71,-17.5 -121.22,-52.6 -29.38,-35.11 -44.14,-75.59 -44.14,-121.45 0,-48.94 16.13,-89.43 48.26,-121.22 32.13,-31.91 69.19,-47.8 111.15,-47.8 35.91,0 66.22,10.63 91.03,31.79l0 -22.87 56.95 0z"/>
    <polygon class="fil0" points="2430.76,644.93 2430.76,292.93 2373.12,292.93 2373.12,235.99 2494.57,235.99 2494.57,644.93 2544.66,644.93 2544.66,701.87 2373.12,701.87 2373.12,644.93 "/>
    <path class="fil0" d="M2351.28 644.93l0 56.95 -111.84 0 0 -39.56c-30.75,30.07 -65.18,45.05 -103.15,45.05 -29.51,0 -55.11,-9.6 -76.85,-28.82 -21.84,-19.21 -32.7,-43.68 -32.7,-73.64 0,-30.08 11.55,-55.12 34.64,-74.9 23.22,-19.9 51.12,-29.85 83.71,-29.85 30.41,0 59.81,9.15 88.16,27.45l0 -32.25c0,-16.69 -1.6,-29.38 -4.68,-38.42 -3.2,-8.92 -10.52,-17.04 -22.08,-24.25 -11.43,-7.2 -26.52,-10.75 -45.16,-10.75 -32.03,0 -55.12,12.8 -69.53,38.42l-60.95 -16.12c27.1,-50.55 73.87,-75.82 140.31,-75.82 24.36,0 45.51,3.31 63.24,9.83 17.84,6.64 31.1,15.1 39.79,25.5 8.81,10.41 14.64,21.61 17.61,33.62 3.09,12.01 4.58,31.22 4.58,57.64l0 149.92 54.89 0zm-118.02 -63.24c-27.44,-21.39 -55.34,-32.13 -83.48,-32.13 -17.61,0 -32.36,5.15 -44.26,15.32 -11.78,10.29 -17.72,23.44 -17.72,39.68 0,15.21 5.15,27.79 15.55,38.08 10.41,10.18 24.59,15.32 42.42,15.32 30.88,0 60.04,-12.92 87.48,-38.65l0 -37.63z"/>
    <polygon class="fil0" points="1742.79,643.55 1742.79,294.31 1683.79,294.31 1683.79,235.99 2045.38,235.99 2045.38,375.96 1987.06,375.96 1987.06,294.31 1813.46,294.31 1813.46,432.22 1963.04,432.22 1963.04,490.55 1813.46,490.55 1813.46,643.55 1873.16,643.55 1873.16,701.87 1683.79,701.87 1683.79,643.55 "/>
   </g>
   <g>
    <path class="fil1" d="M1629.58 329.98l0 371.89 -124.19 0 0 -37.05c-24.24,28.82 -60.84,43.23 -109.78,43.23 -33.84,0 -64.6,-7.89 -92.28,-23.67 -27.67,-15.78 -49.64,-38.31 -65.87,-67.59 -16.24,-29.27 -24.36,-63.12 -24.36,-101.54 0,-38.43 8.12,-72.17 24.36,-101.21 16.23,-29.04 38.19,-51.35 65.87,-66.9 27.67,-15.55 58.44,-23.33 92.28,-23.33 43.92,0 78.45,12.81 103.61,38.43l0 -32.25 130.37 0zm-206.53 274.46c22.87,0 41.63,-7.89 56.27,-23.67 14.64,-15.78 21.95,-37.62 21.95,-65.52 0,-27.45 -7.32,-48.95 -21.95,-64.5 -14.64,-15.55 -33.4,-23.33 -56.27,-23.33 -22.87,0 -41.62,7.78 -56.27,23.33 -14.64,15.55 -21.95,37.05 -21.95,64.5 0,27.9 7.32,49.74 21.95,65.52 14.64,15.79 33.4,23.67 56.27,23.67z"/>
    <polygon class="fil1" points="1021.66,329.98 1152.02,329.98 1152.02,701.87 1021.66,701.87 "/>
    <path class="fil1" d="M937.95 329.98l0 371.89 -124.19 0 0 -39.8c-13.72,15.1 -30.19,26.53 -49.4,34.31 -19.21,7.77 -39.56,11.66 -61.06,11.66 -48.03,0 -86.34,-14.18 -114.93,-42.54 -28.59,-28.36 -42.89,-70.9 -42.89,-127.62l0 -207.91 130.37 0 0 186.63c0,27.9 5.26,48.26 15.78,61.06 10.53,12.81 25.85,19.21 45.97,19.21 20.58,0 37.39,-7.2 50.43,-21.61 13.04,-14.41 19.55,-36.48 19.55,-66.21l0 -179.09 130.37 0z"/>
    <path class="fil1" d="M346.5 451.44l120.07 0 0 250.44 -94 0 0 -29.51c-32.48,26.08 -75.48,39.11 -129,39.11 -44.82,0 -85.76,-9.6 -122.82,-28.82 -37.05,-19.21 -66.44,-47.23 -88.17,-84.05 -21.73,-36.82 -32.59,-80.85 -32.59,-132.09 0,-49.4 11.43,-93.43 34.3,-132.08 22.87,-38.66 54.66,-68.73 95.38,-90.23 40.71,-21.5 86.68,-32.25 137.91,-32.25 44.82,0 85.08,7.54 120.76,22.64 35.68,15.09 65.41,36.82 89.2,65.18l-86.45 78.22c-32.48,-35.68 -71.36,-53.52 -116.65,-53.52 -41.62,0 -74.9,12.69 -99.83,38.08 -24.93,25.39 -37.39,59.81 -37.39,103.27 0,43.91 11.66,77.53 34.99,100.86 23.33,23.32 52.83,34.99 88.51,34.99 34.3,0 62.89,-9.15 85.77,-27.45l0 -122.82z"/>
    <path class="fil2" d="M977.97 27.88c5.88,-7.37 12.73,-13.96 20.58,-19.21 9.79,-6.55 24.67,-14.25 34.12,-2.8 6.44,7.81 7.03,23.54 7.63,33.31 0.98,15.92 1.73,31.46 4.6,47.21 3.29,18.09 9.08,35.41 19.08,50.94 22.48,34.92 61.38,32.3 97.23,26.43 8.12,-1.33 16.24,-2.88 24.39,-4.03 6.48,-0.91 13.92,-1.73 20.42,-0.73 7.07,1.1 13.06,4.59 15.6,11.56 2.64,7.22 0.5,15.9 -1.94,22.89 -13.23,37.85 -84.91,66.91 -122.34,66.79 -81.06,-0.26 -146.29,-66.57 -146.29,-147.45 0,-30.32 9.21,-59.68 26.62,-84.52l0.14 -0.2 0.15 -0.19z"/>
   </g>
  </g>
 </g>
</svg>
