<?xml version="1.0" encoding="UTF-8"?>
<!DOCTYPE svg PUBLIC "-//W3C//DTD SVG 1.1//EN" "http://www.w3.org/Graphics/SVG/1.1/DTD/svg11.dtd">
<!-- Creator: CorelDRAW -->
<svg xmlns="http://www.w3.org/2000/svg" xml:space="preserve" width="79.9844mm" height="19.4423mm" version="1.1" style="shape-rendering:geometricPrecision; text-rendering:geometricPrecision; image-rendering:optimizeQuality; fill-rule:evenodd; clip-rule:evenodd"
viewBox="0 0 6887.88 1674.28"
 xmlns:xlink="http://www.w3.org/1999/xlink"
 xmlns:xodm="http://www.corel.com/coreldraw/odm/2003">
 <defs>
  <style type="text/css">
   <![CDATA[
    .fil0 {fill:#782D2E}
    .fil1 {fill:#373435;fill-rule:nonzero}
   ]]>
  </style>
 </defs>
 <g id="Camada_x0020_1">
  <metadata id="CorelCorpID_0Corel-Layer"/>
  <g id="_2787711213168">
   <path class="fil0" d="M1494.88 54.28c11.44,-14.35 24.78,-27.2 40.06,-37.41 19.06,-12.74 48.03,-27.72 66.41,-5.43 12.54,15.2 13.7,45.82 14.87,64.84 1.9,30.99 3.37,61.25 8.95,91.9 6.41,35.21 17.69,68.93 37.16,99.18 43.76,67.97 119.49,62.87 189.27,51.44 15.82,-2.59 31.62,-5.61 47.49,-7.84 12.62,-1.77 27.11,-3.38 39.76,-1.41 13.77,2.14 25.43,8.93 30.37,22.48 5.13,14.06 0.96,30.96 -3.79,44.56 -25.76,73.68 -165.3,130.27 -238.16,130.03 -157.8,-0.52 -284.79,-129.59 -284.79,-287.05 0,-59.04 17.94,-116.18 51.82,-164.53l0.28 -0.4 0.29 -0.37z"/>
   <polygon class="fil1" points="1428.68,398.54 888.87,1658.08 538.01,1658.08 -0,398.54 385.06,398.54 726.93,1219.04 1076,398.54 "/>
   <polygon class="fil1" points="1513.25,682.83 1855.12,682.83 1855.12,1658.08 1513.25,1658.08 "/>
   <polygon class="fil1" points="3103.87,682.83 2700.82,1658.08 2348.15,1658.08 1946.89,682.83 2297.76,682.83 2531.68,1278.42 2778.19,682.83 "/>
   <path class="fil1" d="M4196.07 682.83l0 975.25 -325.68 0 0 -97.16c-63.58,75.57 -159.55,113.36 -287.9,113.36 -88.77,0 -169.44,-20.69 -242.01,-62.08 -72.58,-41.39 -130.15,-100.46 -172.74,-177.23 -42.58,-76.77 -63.87,-165.54 -63.87,-266.3 0,-100.76 21.29,-189.23 63.87,-265.41 42.58,-76.17 100.16,-134.65 172.74,-175.43 72.57,-40.78 153.24,-61.18 242.01,-61.18 115.16,0 205.73,33.58 271.7,100.76l0 -84.57 341.88 0zm-541.6 719.74c59.98,0 109.16,-20.69 147.55,-62.08 38.38,-41.39 57.58,-98.66 57.58,-171.83 0,-71.98 -19.2,-128.35 -57.58,-169.14 -38.39,-40.78 -87.57,-61.18 -147.55,-61.18 -59.98,0 -109.16,20.39 -147.55,61.18 -38.38,40.78 -57.58,97.16 -57.58,169.14 0,73.17 19.2,130.45 57.58,171.83 38.39,41.39 87.57,62.08 147.55,62.08z"/>
   <path class="fil1" d="M4431.78 398.54l595.58 0c137.96,0 260.31,25.79 367.07,77.37 106.77,51.58 189.53,124.76 248.31,219.53 58.77,94.76 88.16,205.72 88.16,332.88 0,127.15 -29.39,238.11 -88.16,332.88 -58.78,94.76 -141.55,167.94 -248.31,219.52 -106.76,51.58 -229.11,77.37 -367.07,77.37l-595.58 0 0 -1259.54zm581.19 975.25c107.96,0 194.63,-30.6 260,-91.77 65.38,-61.18 98.07,-145.74 98.07,-253.7 0,-107.96 -32.69,-192.53 -98.07,-253.7 -65.37,-61.18 -152.04,-91.77 -260,-91.77l-224.92 0 0 690.95 224.92 0z"/>
   <path class="fil1" d="M6544.2 668.44c-91.16,0 -160.73,19.79 -208.72,59.38 -47.98,39.59 -71.98,99.57 -71.98,179.94l0 43.18 484.02 0 0 275.3 -484.02 0 0 431.84 -356.27 0 0 -744.93c0,-171.53 53.37,-304.38 160.14,-398.55 106.76,-94.17 256.7,-141.25 449.83,-141.25 73.17,0 141.85,7.19 206.03,21.59 64.17,14.39 119.05,34.79 164.64,61.18l-104.36 273.5c-69.57,-40.78 -149.34,-61.18 -239.31,-61.18z"/>
  </g>
 </g>
</svg>
